#!OML:ASF F:\VICON\USERDATA\INSTALL\rory3\rory3.ASF
:FULLY-SPECIFIED
:DEGREES
18
root 0.8532004851664948 17.721810865597064 -15.393888733391885 0.611318228364004 -7.219714559831139 -8.965483115561316
lfemur -25.773688404318193 -5.691877569559535 -7.0847585760828675
ltibia 12.62381090014101
lfoot -6.5069391282491615 13.109880263319392
ltoes -0.4674924894354069
rfemur 11.39938423115451 8.370175921248752 35.48568539493013
rtibia 23.550307546584044
rfoot -17.98828973631688 -5.057512393035441
rtoes -6.620394103688266
lowerback 8.691004974505265 2.9330266160645384 9.205021839660079
upperback -0.2961010962253717 4.95995518709312 2.346412991735665
thorax -4.627068063893846 2.2524457284336696 -3.28537289908305
lowerneck -16.812697477122132 -2.8426115795334472 -1.2787701966704126
upperneck 21.771091012831672 -3.6821302757348358 0.25725346030489626
head 9.702821477831352 -1.7836801369709954 -0.18316457836539876
lclavicle -1.9532406450981726e-15 9.067692723530627e-16
lhumerus -38.738586601774266 6.998757908063223 81.50190918757808
lradius 21.815007350813346
lwrist 2.181877858017033
lhand -26.959001191496252 19.654510470509692
lfingers 7.12502
lthumb -0.3804511870336866 49.633910361194204
rclavicle -1.9532406450981726e-15 9.067692723530627e-16
rhumerus -21.923517371658598 -8.06256624847206 -82.9950867742963
rradius 29.725085257422307
rwrist 1.1132423606602018
rhand -18.355892863989816 25.061889215076977
rfingers 7.12502
rthumb 7.926847146354429 -4.769470633268893
19
root 0.9375104558386229 17.81860543891849 -14.527988626046733 0.022008355980806193 -7.234754475630092 -7.496886901058314
lfemur -24.746089215547553 -3.719455198102091 -10.409513341748289
ltibia 15.30130877322166
lfoot 0.23016680166390024 5.892660333826589
ltoes -1.7083827079959812
rfemur 12.90218248024053 7.801058223463533 33.32958872192012
rtibia 26.202905809557773
rfoot -14.400793910306879 -2.7755366056489796
rtoes -10.656977594749232
lowerback 8.540246829799294 2.9138266461730233 7.867065018579174
upperback -0.20208062618759076 4.766206011775012 2.1079354099527277
thorax -4.547449877913833 2.193726203212331 -2.7670449077108734
lowerneck -16.94959562521856 -2.854351169485531 -1.4385578136960187
upperneck 22.05608757555889 -3.6150117123089087 0.09139804424957265
head 9.828907520120653 -1.7837401337014243 -0.21042469538089728
lclavicle -1.953240668309855e-15 9.067691698370575e-16
lhumerus -39.17258531741338 8.868084440712636 80.74981353868068
lradius 20.294110380804455
lwrist 1.1092113876138066
lhand -27.20779988398527 18.486013423628464
lfingers 7.12502
lthumb -0.6207718830625032 48.46481334551369
rclavicle -1.953240668309855e-15 9.067691698370575e-16
rhumerus -22.88961476027386 -9.356964423858006 -82.56978811802216
rradius 29.250086659379477
rwrist 1.5441812160578747
rhand -19.79068056811943 23.016497396537524
rfingers 7.12502
rthumb 6.541909541516062 -6.862472288995693
20
root 0.9908761948404838 17.91849983086025 -13.649488055302706 -1.0373296405705286 -5.646659136068106 -4.494634179781096
lfemur -22.27719022537538 -3.7424851139631716 -14.944307183298314
ltibia 16.290208691643464
lfoot 3.032019168241658 0.12930670301911695
ltoes -3.0354206907448145
rfemur 11.89078400925824 6.226153805524597 29.764293886773675
rtibia 32.99190207763438
rfoot -7.956000361774434 -1.7821085846743205
rtoes -9.703399654319972
lowerback 8.386508755661877 2.632318416270415 4.8094418349672425
upperback -0.310184706090004 4.050038748753855 1.3735428286903804
thorax -4.7938942592088205 1.8981187320546602 -1.7586790126801324
lowerneck -16.252005056453207 -3.0290950393980447 -1.45551756289873
upperneck 22.235285481081835 -3.8949857156685948 0.19302229797895087
head 9.766519466495149 -1.905843339760116 -0.19979702781138578
lclavicle -1.953240616762468e-15 9.06769238669254e-16
lhumerus -39.31988574158561 10.017582226890731 79.69281944954392
lradius 18.12041514564464
lwrist -0.6389308688476385
lhand -27.03950076852578 18.00751482884036
lfingers 7.12502
lthumb -0.45825576913038296 47.98681473835517
rclavicle -1.953240616762468e-15 9.06769238669254e-16
rhumerus -24.53371021897866 -12.342309478015604 -81.76359100815813
rradius 27.669691443260916
rwrist 2.5871189760503137
rhand -20.067978094997287 22.673998759517747
rfingers 7.12502
rthumb 6.274181882942772 -7.21312090728632
21
root 1.0587778449572816 18.01177237062986 -12.70165281120182 -1.5114619282949853 -4.110255305020107 -4.014161435302928
lfemur -20.19846343327227 -2.1310519198822777 -18.420761855060974
ltibia 21.3529580187408
lfoot 0.4007129574439636 -3.6631076012157564
ltoes -1.5428563918191442
rfemur 8.57865804837089 3.648900147787649 27.49923414442021
rtibia 41.4051569848255
rfoot 1.2828591075860576 0.4456139203711196
rtoes -4.985274586236921
lowerback 8.776046235355832 2.427518313316848 4.782524038114138
upperback -0.1162412651770865 3.7572341619979177 1.0965093374513861
thorax -4.746083015442285 1.801241251516065 -1.5650933673327487
lowerneck -16.172441260054388 -3.0459479438697277 -1.5322725498514114
upperneck 21.894346390364106 -3.934959436996628 0.4639818057788806
head 9.69001266112123 -1.9010430880348526 -0.11902840308896415
lclavicle -1.9496138736364364e-15 9.093781268014257e-16
lhumerus -39.501514148620025 9.451196331260142 80.01517423499526
lradius 18.71185237770054
lwrist -2.0535564887631343
lhand -25.66809860545219 23.96553011201493
lfingers 7.12502
lthumb 1.0704297304805646 54.017361516176
rclavicle -1.9521970827992707e-15 9.077316486856123e-16
rhumerus -26.14929247776319 -14.866463332160428 -81.16134290330808
rradius 27.399624021035542
rwrist 3.7029496163299416
rhand -18.12172490276156 21.745596733405357
rfingers 7.12502
rthumb 8.167654698266166 -7.650153704451531
22
root 1.1215679898108182 18.12073130675518 -12.005007868987304 -1.935618737590715 -3.821460990848024 -2.3891771330070646
lfemur -17.099452195526354 -1.7991165918050598 -20.735946534342208
ltibia 22.87021176621497
lfoot 1.626688381318779 -2.1595346466565433
ltoes -0.19450422364367936
rfemur 2.2235366783756554 2.1818335831549476 24.27968797260567
rtibia 52.09158068812851
rfoot 11.057814377897714 -1.0519830817874363
rtoes 3.8389059739086018
lowerback 9.052889707304958 2.2806308430877267 3.1052965693485657
upperback -0.049716370225293294 3.5231080980060714 0.72233220329681
thorax -4.977617012169466 1.7539385283566293 -1.2330153893393088
lowerneck -15.965977650955647 -3.0665214008145023 -1.5267009268000666
upperneck 21.75520864739188 -3.997259941097628 0.5399498594423006
head 9.606188612269213 -1.9208213613254963 -0.08272514405692424
lclavicle -1.9517042349209034e-15 9.079181605669306e-16
lhumerus -39.01288636790127 7.461443943763529 81.22308135186883
lradius 20.27786975170662
lwrist -0.2552585331295969
lhand -25.984150758920144 23.373563678965944
lfingers 7.12502
lthumb 0.8541013937610378 54.012468098949306
rclavicle -1.9524361122340574e-15 9.075118525856903e-16
rhumerus -27.1923300040723 -16.499352691487797 -80.76969568831986
rradius 26.530042143924593
rwrist 4.646586734524199
rhand -17.26120951925096 20.77757281784054
rfingers 7.12502
rthumb 8.808870807384046 -8.829241336314713
